<?xml version="1.0" encoding="UTF-8" standalone="no"?>
<!DOCTYPE svg PUBLIC "-//W3C//DTD SVG 1.1//EN" "http://www.w3.org/Graphics/SVG/1.1/DTD/svg11.dtd">
<svg width="100%" height="100%" viewBox="0 0 657 824" version="1.1" xmlns="http://www.w3.org/2000/svg" xmlns:xlink="http://www.w3.org/1999/xlink" xml:space="preserve" xmlns:serif="http://www.serif.com/" style="fill-rule:evenodd;clip-rule:evenodd;stroke-linejoin:round;stroke-miterlimit:2;">
    <g transform="matrix(1,0,0,1,-878.184,-718.626)">
        <g transform="matrix(0.95249,0,0,1.29658,-663.625,-1070.96)">
            <rect id="Artboard1" x="696.726" y="825.987" width="6707.8" height="1771.88" style="fill:none;"/>
            <g id="Artboard11" serif:id="Artboard1">
                <g id="Text">
                </g>
                <g id="Artboard2" transform="matrix(1.12464,0,0,0.826182,606.054,763.402)">
                    <rect x="900.428" y="746.607" width="612.733" height="768.811" style="fill:none;"/>
                    <g id="Logo" transform="matrix(0.944168,0,0,1.21811,-808.102,-965.65)">
                        <g transform="matrix(0.948576,0,0,0.735252,696.726,825.987)">
                            <path d="M1378.12,1362.37C1388.25,1452.75 1465.02,1523.1 1558.09,1523.1C1658.04,1523.1 1739.19,1441.95 1739.19,1342C1739.19,1279.12 1707.06,1223.7 1658.36,1191.21C1631.36,1173.19 1605,1147.73 1586.13,1113.75L1505.25,1194.63C1502.94,1196.94 1499.19,1196.94 1496.89,1194.63L1411.58,1109.33C1409.27,1107.02 1409.27,1103.27 1411.58,1100.96L1682.45,830.088C1684.76,827.78 1688.51,827.78 1690.82,830.088L1710.35,849.622L1741.67,818.296C1742.63,817.342 1744.18,817.342 1745.13,818.296L1787.92,861.078C1788.87,862.033 1788.87,863.583 1787.92,864.538L1756.59,895.863L1776.12,915.397C1778.43,917.705 1778.43,921.453 1776.12,923.761L1659.25,1040.63C1668.58,1073.91 1689.72,1096.93 1711.55,1111.49C1785.98,1161.14 1835.02,1245.89 1835.02,1342C1835.02,1494.84 1710.93,1618.93 1558.09,1618.93C1412.09,1618.93 1292.34,1505.72 1281.89,1362.37L1205.01,1362.37C1200.23,1362.37 1196.35,1358.49 1196.35,1353.71L1196.35,1305.68C1196.35,1300.9 1200.23,1297.02 1205.01,1297.02L1453.16,1297.02C1457.94,1297.02 1461.82,1300.9 1461.82,1305.68L1461.82,1353.71C1461.82,1358.49 1457.94,1362.37 1453.16,1362.37L1378.12,1362.37Z" style="fill:url(#_Radial1);"/>
                        </g>
                        <g transform="matrix(1.39436,0,0,1.08079,-436.762,1032.02)">
                            <circle cx="1757.07" cy="635.101" r="32.877" style="fill:rgb(178,97,195);"/>
                        </g>
                    </g>
                </g>
            </g>
        </g>
    </g>
    <defs>
        <radialGradient id="_Radial1" cx="0" cy="0" r="1" gradientUnits="userSpaceOnUse" gradientTransform="matrix(447.143,-2.36998e-13,2.97367e-13,561.041,1387.88,1213.79)"><stop offset="0" style="stop-color:rgb(191,119,204);stop-opacity:1"/><stop offset="1" style="stop-color:rgb(142,36,170);stop-opacity:1"/></radialGradient>
    </defs>
</svg>
